<svg version="1.1" id="Layer_1" xmlns="http://www.w3.org/2000/svg" xmlns:xlink="http://www.w3.org/1999/xlink" x="0px" y="0px"
	 width="100%" viewBox="0 0 107 91" enable-background="new 0 0 107 91" xml:space="preserve">
<path fill="#FEFEFE" opacity="1.000000" stroke="none" 
	d="
M71.000000,92.000000 
	C47.333332,92.000000 24.166666,92.000000 1.000000,92.000000 
	C1.000000,61.666668 1.000000,31.333334 1.000000,1.000000 
	C36.666668,1.000000 72.333336,1.000000 108.000000,1.000000 
	C108.000000,31.333334 108.000000,61.666668 108.000000,92.000000 
	C95.833336,92.000000 83.666664,92.000000 71.000000,92.000000 
M68.408470,9.709991 
	C64.741013,13.067337 61.073551,16.424683 57.145302,20.020771 
	C55.483967,18.589598 53.843040,17.220875 52.253887,15.794473 
	C50.644608,14.350012 49.195644,12.701213 47.468918,11.422080 
	C46.251709,10.520388 44.687820,10.086683 43.278717,9.444032 
	C43.013237,9.996381 42.747753,10.548729 42.482273,11.101078 
	C45.215611,14.046312 47.948948,16.991547 50.858337,20.126480 
	C44.181351,20.126480 37.417805,20.093912 30.654726,20.136156 
	C24.580643,20.174097 22.511740,22.117048 22.452097,28.172962 
	C22.353735,38.160538 22.376642,48.150105 22.442303,58.138218 
	C22.483711,64.437531 24.261929,66.196335 30.492815,66.206924 
	C48.139191,66.236908 65.785660,66.227875 83.432076,66.211609 
	C89.738541,66.205803 91.516571,64.520012 91.555992,58.300365 
	C91.619308,48.312222 91.611732,38.323177 91.559021,28.334913 
	C91.524933,21.874979 89.719734,20.153374 83.165298,20.131399 
	C76.442772,20.108860 69.720108,20.126402 61.855930,20.126402 
	C65.770485,16.465572 68.741051,13.687548 72.125885,10.522099 
	C70.632904,9.917418 69.807297,9.583034 68.408470,9.709991 
z"/>
<path fill="#15375A" opacity="1.000000" stroke="none" 
	d="
M68.695084,9.479321 
	C69.807297,9.583034 70.632904,9.917418 72.125885,10.522099 
	C68.741051,13.687548 65.770485,16.465572 61.855930,20.126402 
	C69.720108,20.126402 76.442772,20.108860 83.165298,20.131399 
	C89.719734,20.153374 91.524933,21.874979 91.559021,28.334913 
	C91.611732,38.323177 91.619308,48.312222 91.555992,58.300365 
	C91.516571,64.520012 89.738541,66.205803 83.432076,66.211609 
	C65.785660,66.227875 48.139191,66.236908 30.492815,66.206924 
	C24.261929,66.196335 22.483711,64.437531 22.442303,58.138218 
	C22.376642,48.150105 22.353735,38.160538 22.452097,28.172962 
	C22.511740,22.117048 24.580643,20.174097 30.654726,20.136156 
	C37.417805,20.093912 44.181351,20.126480 50.858337,20.126480 
	C47.948948,16.991547 45.215611,14.046312 42.482273,11.101078 
	C42.747753,10.548729 43.013237,9.996381 43.278717,9.444032 
	C44.687820,10.086683 46.251709,10.520388 47.468918,11.422080 
	C49.195644,12.701213 50.644608,14.350012 52.253887,15.794473 
	C53.843040,17.220875 55.483967,18.589598 57.145302,20.020771 
	C61.073551,16.424683 64.741013,13.067337 68.695084,9.479321 
M76.469070,25.956451 
	C60.711884,25.956451 44.954693,25.956451 29.207752,25.956451 
	C29.207752,37.849567 29.207752,49.122597 29.207752,60.392578 
	C47.891479,60.392578 66.321815,60.392578 85.004295,60.392578 
	C85.004295,48.897369 85.004295,37.657284 85.004295,25.956450 
	C82.371925,25.956450 79.914711,25.956450 76.469070,25.956451 
z"/>
<path fill="#FAFBFC" opacity="1.000000" stroke="none" 
	d="
M76.963280,25.956451 
	C79.914711,25.956450 82.371925,25.956450 85.004295,25.956450 
	C85.004295,37.657284 85.004295,48.897369 85.004295,60.392578 
	C66.321815,60.392578 47.891479,60.392578 29.207752,60.392578 
	C29.207752,49.122597 29.207752,37.849567 29.207752,25.956451 
	C44.954693,25.956451 60.711884,25.956451 76.963280,25.956451 
M60.520859,48.000782 
	C63.272720,46.508114 66.024582,45.015446 69.465813,43.148849 
	C61.867210,39.187954 55.094925,35.657795 48.098370,32.010727 
	C48.098370,39.726158 48.098370,46.759071 48.098370,54.472164 
	C52.337517,52.243011 56.090378,50.269573 60.520859,48.000782 
z"/>
<path fill="#0C2F53" opacity="1.000000" stroke="none" 
	d="
M60.182045,48.148460 
	C56.090378,50.269573 52.337517,52.243011 48.098370,54.472164 
	C48.098370,46.759071 48.098370,39.726158 48.098370,32.010727 
	C55.094925,35.657795 61.867210,39.187954 69.465813,43.148849 
	C66.024582,45.015446 63.272720,46.508114 60.182045,48.148460 
z"/>
</svg>